# xmcd
#
# Track frame offsets:
#	150
#	26338
#	56162
#	84391
#
# Disc length: 1727 seconds
#
# Revision: 0
# Processed by: cddbd v1.5.2PL0 Copyright (c) Steve Scherf et al.
# Submitted via: EasyCDDAExtractor 9.0.0.1
#
DISCID=2706bd04
DTITLE=Uriah Heep - Barrowlands Ballroom Glasgow 30-10-88 Disc 2
DYEAR=1988
DGENRE=Hard Rock
TTITLE0=That's The Way It Is
TTITLE1=Pacific Highway
TTITLE2=Drum Solo
TTITLE3=Look At Yourself
EXTD=
EXTT0=
EXTT1=
EXTT2=
EXTT3=
PLAYORDER=
